<?xml version="1.0" encoding="UTF-8"?>
<svg xmlns="http://www.w3.org/2000/svg" xmlns:xlink="http://www.w3.org/1999/xlink" width="60px" height="24px" viewBox="0 0 61 24" version="1.1">
<g id="surface1">
<path style=" stroke:none;fill-rule:nonzero;fill:rgb(0%,0%,0%);fill-opacity:1;" d="M 59.097656 9.785156 L 56.382812 9.785156 C 55.539062 9.785156 54.734375 10.183594 54.230469 10.863281 L 46.847656 19.875 L 46.847656 11.179688 C 46.847656 10.40625 46.238281 9.785156 45.488281 9.785156 C 44.984375 9.785156 44.542969 10.066406 44.308594 10.464844 L 38.75 20.226562 C 38.175781 21.105469 37.296875 20.917969 37.050781 20.847656 C 36.796875 20.765625 35.953125 20.425781 35.953125 19.347656 C 35.953125 18.773438 35.953125 18 35.953125 17.097656 L 41.394531 6.679688 C 42.15625 5.296875 42.144531 3.632812 41.359375 2.25 C 40.574219 0.855469 39.160156 0.0351562 37.589844 0.0351562 C 35.179688 0.0351562 33.226562 2.039062 33.226562 4.488281 C 33.226562 8.742188 33.226562 16.242188 33.226562 19.171875 C 33.226562 20.132812 32.464844 20.917969 31.53125 20.917969 C 30.59375 20.917969 29.820312 20.132812 29.820312 19.171875 L 29.820312 16.734375 C 29.820312 12.902344 26.765625 9.773438 23.011719 9.773438 C 21.199219 9.773438 19.476562 10.5 18.191406 11.8125 C 18.015625 12 17.828125 12.210938 17.675781 12.421875 C 17.664062 12.433594 17.664062 12.433594 17.652344 12.433594 L 14.644531 16.300781 C 14.503906 15.984375 14.339844 15.667969 14.140625 15.375 L 10.773438 10.371094 C 10.527344 9.996094 10.140625 9.785156 9.707031 9.761719 C 9.285156 9.75 8.863281 9.9375 8.59375 10.277344 L 0.847656 20.027344 C 0.367188 20.625 0.460938 21.503906 1.046875 21.984375 C 1.632812 22.476562 2.488281 22.382812 2.957031 21.785156 L 9.554688 13.476562 L 11.882812 16.957031 C 12.421875 17.742188 12.480469 18.714844 12.046875 19.558594 C 11.976562 19.699219 11.882812 19.828125 11.789062 19.945312 L 11.789062 19.957031 C 11.789062 19.957031 11.789062 19.96875 11.777344 19.96875 C 11.320312 20.554688 10.632812 20.90625 9.859375 20.90625 L 7.613281 20.90625 C 6.863281 20.90625 6.242188 21.527344 6.242188 22.300781 C 6.242188 23.0625 6.863281 23.695312 7.613281 23.695312 L 9.859375 23.695312 C 11.460938 23.695312 12.949219 22.945312 13.917969 21.703125 C 13.917969 21.703125 13.917969 21.703125 13.917969 21.691406 L 16.421875 18.480469 C 17.183594 21.46875 19.851562 23.695312 23.011719 23.695312 L 24.367188 23.695312 C 25.128906 23.695312 25.738281 23.0625 25.738281 22.300781 C 25.738281 21.527344 25.128906 20.90625 24.367188 20.90625 L 23.011719 20.90625 C 20.753906 20.90625 18.925781 19.03125 18.925781 16.722656 C 18.925781 15.609375 19.347656 14.566406 20.132812 13.78125 C 20.90625 12.984375 21.921875 12.550781 23.011719 12.550781 C 25.269531 12.550781 27.09375 14.425781 27.09375 16.722656 L 27.09375 19.171875 C 27.09375 21.667969 29.085938 23.695312 31.53125 23.695312 C 32.6875 23.695312 33.742188 23.226562 34.523438 22.488281 C 35.003906 22.957031 35.589844 23.296875 36.269531 23.507812 C 36.691406 23.636719 37.121094 23.695312 37.519531 23.695312 C 38.925781 23.695312 40.222656 22.992188 41.042969 21.714844 C 41.054688 21.703125 41.066406 21.667969 41.078125 21.65625 L 44.121094 16.324219 L 44.121094 21.503906 C 44.121094 22.441406 44.671875 23.25 45.523438 23.554688 C 45.769531 23.648438 46.015625 23.695312 46.261719 23.695312 C 46.894531 23.695312 47.480469 23.414062 47.898438 22.910156 L 56.324219 12.609375 C 56.347656 12.597656 56.359375 12.574219 56.371094 12.550781 L 59.097656 12.550781 C 59.847656 12.550781 60.457031 11.917969 60.457031 11.15625 C 60.457031 10.394531 59.847656 9.785156 59.097656 9.785156 Z M 35.953125 4.488281 C 35.953125 3.5625 36.679688 2.824219 37.589844 2.824219 C 38.445312 2.824219 38.867188 3.398438 39.019531 3.65625 C 39.160156 3.902344 39.441406 4.570312 39.019531 5.320312 C 39.019531 5.332031 39.019531 5.355469 39.007812 5.355469 L 35.953125 11.179688 C 35.953125 8.777344 35.953125 6.328125 35.953125 4.488281 Z M 35.953125 4.488281 "/>
</g>
</svg>
